<svg width="128" height="128" viewBox="0 0 128 128" fill="none" xmlns="http://www.w3.org/2000/svg">
  <!-- Background gradient -->
  <defs>
    <linearGradient id="bgGradient" x1="0%" y1="0%" x2="100%" y2="100%">
      <stop offset="0%" style="stop-color:#7c3aed;stop-opacity:1" />
      <stop offset="100%" style="stop-color:#22d3ee;stop-opacity:1" />
    </linearGradient>
    <linearGradient id="glowGradient" x1="0%" y1="0%" x2="100%" y2="100%">
      <stop offset="0%" style="stop-color:#a855f7;stop-opacity:0.8" />
      <stop offset="100%" style="stop-color:#06b6d4;stop-opacity:0.8" />
    </linearGradient>
  </defs>

  <!-- Outer glow ring -->
  <circle cx="64" cy="64" r="60" fill="url(#glowGradient)" opacity="0.3"/>

  <!-- Main background circle -->
  <circle cx="64" cy="64" r="56" fill="url(#bgGradient)"/>

  <!-- Inner dark circle for depth -->
  <circle cx="64" cy="64" r="48" fill="#0f0f23" opacity="0.8"/>

  <!-- AI Brain/Circuit pattern -->
  <g transform="translate(32, 32)">
    <!-- Central node -->
    <circle cx="32" cy="32" r="8" fill="#22d3ee" opacity="0.9"/>

    <!-- Neural network connections -->
    <path d="M32 16 L32 24" stroke="#7c3aed" stroke-width="2" opacity="0.8"/>
    <path d="M32 40 L32 48" stroke="#7c3aed" stroke-width="2" opacity="0.8"/>
    <path d="M16 32 L24 32" stroke="#7c3aed" stroke-width="2" opacity="0.8"/>
    <path d="M40 32 L48 32" stroke="#7c3aed" stroke-width="2" opacity="0.8"/>

    <!-- Corner nodes -->
    <circle cx="16" cy="16" r="4" fill="#a855f7" opacity="0.7"/>
    <circle cx="48" cy="16" r="4" fill="#a855f7" opacity="0.7"/>
    <circle cx="16" cy="48" r="4" fill="#a855f7" opacity="0.7"/>
    <circle cx="48" cy="48" r="4" fill="#a855f7" opacity="0.7"/>

    <!-- Connecting lines -->
    <path d="M20 20 L28 28" stroke="#22d3ee" stroke-width="1.5" opacity="0.6"/>
    <path d="M44 20 L36 28" stroke="#22d3ee" stroke-width="1.5" opacity="0.6"/>
    <path d="M20 44 L28 36" stroke="#22d3ee" stroke-width="1.5" opacity="0.6"/>
    <path d="M44 44 L36 36" stroke="#22d3ee" stroke-width="1.5" opacity="0.6"/>
  </g>

  <!-- Code brackets representing development -->
  <g transform="translate(20, 20)">
    <!-- Left bracket -->
    <path d="M8 12 L4 12 L4 16 L8 16" stroke="#ffffff" stroke-width="2" fill="none" opacity="0.9"/>
    <path d="M8 44 L4 44 L4 48 L8 48" stroke="#ffffff" stroke-width="2" fill="none" opacity="0.9"/>
    <path d="M4 16 L4 44" stroke="#ffffff" stroke-width="2" opacity="0.9"/>

    <!-- Right bracket -->
    <path d="M84 12 L88 12 L88 16 L84 16" stroke="#ffffff" stroke-width="2" fill="none" opacity="0.9"/>
    <path d="M84 44 L88 44 L88 48 L84 48" stroke="#ffffff" stroke-width="2" fill="none" opacity="0.9"/>
    <path d="M88 16 L88 44" stroke="#ffffff" stroke-width="2" opacity="0.9"/>
  </g>

  <!-- Subtle inner highlight -->
  <circle cx="64" cy="64" r="40" fill="none" stroke="#ffffff" stroke-width="1" opacity="0.2"/>
</svg>